<?xml version="1.0" encoding="UTF-8" standalone="no"?>
<!-- Created with Inkscape (http://www.inkscape.org/) -->

<svg
   width="2048"
   height="2048"
   viewBox="0 0 1024 1024"
   version="1.1"
   id="svg5"
   inkscape:version="1.2.2 (1:1.2.2+202305151915+b0a8486541)"
   sodipodi:docname="logo.svg"
   xmlns:inkscape="http://www.inkscape.org/namespaces/inkscape"
   xmlns:sodipodi="http://sodipodi.sourceforge.net/DTD/sodipodi-0.dtd"
   xmlns="http://www.w3.org/2000/svg"
   xmlns:svg="http://www.w3.org/2000/svg"
   xmlns:rdf="http://www.w3.org/1999/02/22-rdf-syntax-ns#"
   xmlns:cc="http://creativecommons.org/ns#"
   xmlns:dc="http://purl.org/dc/elements/1.1/">
  <title
     id="title3332">Logo Helpers Css</title>
  <sodipodi:namedview
     id="namedview7"
     pagecolor="#ffffff"
     bordercolor="#000000"
     borderopacity="0.25"
     inkscape:showpageshadow="false"
     inkscape:pageopacity="0.0"
     inkscape:pagecheckerboard="false"
     inkscape:deskcolor="#d1d1d1"
     inkscape:document-units="mm"
     showgrid="false"
     showborder="false"
     borderlayer="true"
     inkscape:zoom="0.2102413"
     inkscape:cx="868.05019"
     inkscape:cy="1172.4623"
     inkscape:window-width="1440"
     inkscape:window-height="868"
     inkscape:window-x="0"
     inkscape:window-y="0"
     inkscape:window-maximized="1"
     inkscape:current-layer="layer1" />
  <defs
     id="defs2">
    <filter
       style="color-interpolation-filters:sRGB;"
       inkscape:label="Drop Shadow"
       id="filter10507"
       x="-0.012872969"
       y="-0.031550468"
       width="1.0330286"
       height="1.08095">
      <feFlood
         flood-opacity="0.498039"
         flood-color="rgb(0,0,0)"
         result="flood"
         id="feFlood10497" />
      <feComposite
         in="flood"
         in2="SourceGraphic"
         operator="in"
         result="composite1"
         id="feComposite10499" />
      <feGaussianBlur
         in="composite1"
         stdDeviation="3"
         result="blur"
         id="feGaussianBlur10501" />
      <feOffset
         dx="6"
         dy="6"
         result="offset"
         id="feOffset10503" />
      <feComposite
         in="SourceGraphic"
         in2="offset"
         operator="over"
         result="composite2"
         id="feComposite10505" />
    </filter>
  </defs>
  <g
     inkscape:label="Capa 1"
     inkscape:groupmode="layer"
     id="layer1">
    <g
       id="g11694"
       inkscape:export-filename="logo1024.png"
       inkscape:export-xdpi="47.906269"
       inkscape:export-ydpi="47.906269">
      <path
         sodipodi:type="spiral"
         style="fill:none;fill-rule:evenodd;stroke:#000000;stroke-width:0.5"
         id="path3697"
         sodipodi:cx="270.34772"
         sodipodi:cy="397.27902"
         sodipodi:expansion="1"
         sodipodi:revolution="3.0751894"
         sodipodi:radius="615.16895"
         sodipodi:argument="-18.320923"
         sodipodi:t0="0"
         d="m 270.34772,397.27902 c 25.98216,15.17572 -7.63789,42.51061 -25.22305,43.18407 -47.6547,1.82504 -70.0373,-53.95168 -61.14508,-93.63016 15.90608,-70.97551 97.89588,-100.32832 162.03727,-79.10611 94.13007,31.14445 131.31224,142.36221 97.06712,230.44439 -45.64335,117.3997 -187.00416,162.5791 -298.8515,115.02814 C 3.4840079,553.36133 -49.757332,381.4719 11.243322,245.94073 85.123287,81.79433 287.7394,20.457366 446.90905,94.990561 634.48498,182.82535 703.93792,416.28346 615.82024,599.06341 514.08491,810.09009 249.7117,887.67242 43.340286,785.93562 -191.15203,670.33579 -276.87313,374.99819 -161.49294,145.04854 -32.053806,-112.92021 294.28304,-206.78691 547.80124,-77.745703 829.25451,65.514494 931.27194,422.87613 788.55651,699.9556 744.62326,785.25122 680.15889,859.43508 602.17514,915.27843"
         transform="matrix(0.94279204,0,0,0.95172754,216.5012,155.76923)" />
      <path
         sodipodi:type="spiral"
         style="fill:none;fill-rule:evenodd;stroke:#000000;stroke-width:0.5"
         id="path3807"
         sodipodi:cx="-663.57184"
         sodipodi:cy="402.26538"
         sodipodi:expansion="1"
         sodipodi:revolution="3.1182106"
         sodipodi:radius="229.09901"
         sodipodi:argument="-17.876562"
         sodipodi:t0="0"
         d="m -663.57184,402.26538 c 6.21992,9.13464 -9.24462,12.89104 -15.18237,10.33792 -16.09094,-6.9188 -14.70689,-28.94883 -5.49346,-40.70267 16.48065,-21.02486 48.3037,-17.81352 66.22296,-0.649 26.29723,25.18963 21.06751,67.94112 -4.19546,91.74326 -33.67156,31.7245 -87.68144,24.38758 -117.26355,-9.03992 -37.22606,-42.0651 -27.74253,-107.47146 13.88438,-142.78385 50.41575,-42.76803 127.28958,-31.11778 168.30413,18.72884 48.33424,58.74251 34.50581,147.12526 -23.57329,193.82443 -67.05461,53.91605 -166.97264,37.90235 -219.34472,-28.41775 -59.50849,-75.35712 -41.30485,-186.82825 33.26221,-244.86502 83.65297,-65.10848 206.68985,-44.71167 270.38531,38.10667 70.71404,91.94405 48.12171,226.55595 -42.95113,295.9056 -44.58146,33.94766 -101.42097,49.75847 -157.14364,44.50843"
         transform="translate(1135.6338,127.49429)" />
      <path
         style="fill:#5a9cfe;stroke:#5a9cfe;stroke-width:2.41219;stroke-opacity:1"
         d="m 436.19855,606.33023 c -47.07137,-15.11607 -72.93292,-67.80804 -57.62522,-117.40926 4.68908,-15.19396 18.45858,-39.99084 20.8672,-37.57882 0.68749,0.68847 -0.84787,5.43046 -3.4119,10.53778 -19.83233,39.50414 -6.06162,91.35121 27.50634,108.64221 14.19943,7.31416 31.11448,5.62243 43.27246,-3.19722 5.43309,-3.9413 10.10761,-10.37615 11.5023,-12.98581 3.63632,-6.80416 3.38967,-12.28445 -0.81572,-15.77956 -1.98865,-1.65278 -2.41471,-5.51288 -2.41471,-7.34175 0,-1.82888 -1.14874,-3.32531 -2.55274,-3.32531 -1.40402,0 -0.44775,5.2795 -0.30056,6.70627 0.36451,3.5333 -6.30045,3.65299 -10.0402,5.36321 -16.03862,7.3346 -19.87524,-20.06606 -14.48162,-33.10583 12.1183,-29.29751 55.13926,-28.56986 75.63953,-0.23005 23.10013,31.93391 9.53342,76.30212 -29.47451,96.39254 -13.27007,6.83457 -41.62922,8.46303 -57.67065,3.3116 z"
         id="path4673"
         sodipodi:nodetypes="ssssssssssssssss" />
      <path
         style="fill:#3485fd;stroke-width:4.75644;stroke:#3485fd;stroke-opacity:1"
         d="m 1039.282,1487.3152 c 22.2364,-8.4721 54.3423,-23.7688 71.3466,-33.9925 41.4879,-24.9444 107.796,-91.8916 132.137,-133.4108 62.8374,-107.1836 68.6436,-238.0311 15.4074,-347.22005 -51.054,-104.71337 -144.7014,-165.65253 -254.5643,-165.65253 -50.04993,0 -85.16467,8.96979 -132.83589,33.93188 -86.69766,45.39754 -130.06884,117.93193 -125.40853,209.7344 3.55421,70.0135 38.12575,124.29 97.89183,153.6879 29.54839,14.5343 35.13097,15.6296 79.41998,15.582 42.32232,-0.048 50.29106,-1.4575 71.41973,-12.6555 28.37438,-15.0381 49.64688,-36.6286 64.80598,-65.7746 8.9561,-17.2197 11.1485,-28.9155 11.2147,-59.8284 0.074,-34.5576 -1.3686,-40.7714 -14.335,-61.744 -34.8132,-56.30916 -103.51561,-70.88068 -146.24942,-31.01902 -17.04586,15.90022 -19.41238,20.82332 -21.37266,44.46172 -1.96971,23.7522 -0.90191,27.8842 10.03097,38.8171 12.70433,12.7044 35.1452,16.394 44.26183,7.2773 3.43974,-3.4397 6.89473,-2.6244 11.28242,2.6624 14.98962,18.0614 -20.6536,57.9354 -56.02973,62.6803 -54.59804,7.3232 -101.99222,-39.1075 -115.63088,-113.28 -9.90776,-53.88245 12.08287,-113.14971 58.38164,-157.3452 73.96168,-70.60172 211.89363,-58.20291 296.77373,26.67724 109.9523,109.95226 95.4995,294.00406 -31.3573,399.32486 -50.2951,41.7567 -136.75072,68.828 -201.88986,63.2164 -83.52363,-7.1953 -143.94324,-34.9789 -203.01233,-93.354 -35.09661,-34.6843 -44.14211,-47.0913 -62.5089,-85.7387 -33.00983,-69.4593 -42.1073,-123.1983 -32.25872,-190.55316 21.49581,-147.01068 123.06577,-261.92527 265.24057,-300.08881 51.84782,-13.91735 136.36604,-13.86281 189.24314,0.12213 82.9208,21.9309 163.2301,74.38194 212.6201,138.86497 96.6229,126.14977 111.0242,294.99887 37.6123,440.98957 -53.9164,107.2211 -144.5918,182.5992 -263.8137,219.3072 -49.04942,15.1021 -53.63305,11.774 -7.8227,-5.6801 z"
         id="path4744"
         transform="scale(0.5)" />
      <rect
         style="fill:none;stroke:#fea35a;stroke-width:2.00696;stroke-dasharray:none;stroke-opacity:1"
         id="rect4921"
         width="1023.4742"
         height="1026.4048"
         x="-0.0037621814"
         y="-0.0037621814" />
      <path
         style="fill:#9d7ed5;stroke:#fea35a;stroke-width:2.01449;stroke-dasharray:none;stroke-opacity:1"
         d="M 787.0444,744.70355 677.5485,580.56885 v 0"
         id="path5531" />
      <path
         style="fill:#9d7ed5;stroke:#9d7ed5;stroke-width:13.5507;stroke-dasharray:none;stroke-opacity:1"
         d="M 839.14597,1509.629 C 738.09048,1501.8576 637.1983,1453.496 559.9828,1375.8152 384.39744,1199.1719 359.72714,911.25609 501.95992,698.65653 574.30694,590.51729 681.69214,509.4658 808.03427,467.63977 c 157.76214,-52.22774 322.24223,-41.68124 471.21583,30.21446 132.6351,64.01068 237.1521,167.7809 304.9466,302.76795 101.8496,202.79452 104.7801,443.31472 7.9054,648.81862 l -16.5786,35.1687 -109.2736,-163.8893 -109.2736,-163.8892 3.8315,-31.0367 c 4.4718,-36.222 2.1182,-91.6886 -5.4441,-128.3 C 1329.5601,872.57129 1252.8717,772.77245 1140.5945,718.00343 1008.7112,653.6705 855.18157,665.8052 742.73473,749.44955 619.63321,841.01944 567.86405,1003.1613 615.83902,1146.8889 c 29.57565,88.6053 86.25722,152.3323 170.59278,191.7972 39.90272,18.6725 74.51653,26.9619 121.66204,29.1358 136.66206,6.3017 251.17116,-70.3392 294.92026,-197.3898 10.7265,-31.1504 11.004,-33.385 11.0716,-89.1278 0.068,-55.6509 -0.2118,-57.9624 -10.4737,-86.64292 -15.118,-42.25313 -29.1059,-63.96842 -63.5433,-98.64717 -24.6954,-24.86846 -35.6853,-33.19299 -58.8588,-44.58354 -39.745,-19.53606 -73.2972,-27.35182 -119.00026,-27.72034 l -37.29925,-0.30068 16.81655,-5.17812 c 24.91326,-7.67121 97.81756,-7.6559 126.12416,0.0269 104.1564,28.26791 181.7104,112.10613 212.2174,229.41327 6.7135,25.8151 7.8489,38.1893 7.7151,84.0828 -0.1376,47.1561 -1.2478,57.8808 -8.975,86.6972 -10.6524,39.7247 -32.8334,87.6451 -56.2423,121.5073 -21.3469,30.8794 -70.9602,79.228 -103.2202,100.5891 -79.5616,52.6819 -177.96813,76.9433 -280.20013,69.0814 z"
         id="path5533"
         transform="scale(0.5)" />
      <path
         style="fill:#9d7ed5;stroke:#fea35a;stroke-width:2.01449;stroke-dasharray:none;stroke-opacity:1"
         d="m 75.05432,269.05537 c 159.84531,107.3631 159.84531,107.3631 159.84531,107.3631 l 0.0968,-2.6522"
         id="path6261" />
      <path
         style="fill:#9d7ed5;stroke:#fea35a;stroke-width:2.01449;stroke-dasharray:none;stroke-opacity:1"
         d="M 789.28525,395.7406 C 952.65535,295.22656 952.65535,295.22656 952.65535,295.22656"
         id="path6263" />
      <path
         style="fill:#9d7ed5;stroke:#fea35a;stroke-width:2.01449;stroke-dasharray:none;stroke-opacity:1"
         d="m 586.65505,919.07505 c 38.6495,107.30125 38.77735,107.17345 38.77735,107.17345"
         id="path6265" />
      <path
         style="fill:#9d7ed5;stroke:#fea35a;stroke-width:2.01449;stroke-dasharray:none;stroke-opacity:1"
         d="M 16.13841,502.2906 C 0.56489255,487.77648 0.56489255,487.77648 0.56489255,487.77648"
         id="path6267" />
      <path
         style="fill:#8660cb;stroke:#8660cb;stroke-width:9.58179;stroke-dasharray:none;stroke-opacity:1"
         d="m 829.99867,1889.294 c -5.23209,-0.5196 -21.28507,-2.0659 -35.6733,-3.4361 C 642.53205,1871.4018 498.94019,1813.017 369.81316,1713.2502 334.5028,1685.9686 262.60429,1614.4583 233.77701,1577.9488 124.55332,1439.6176 60.16905,1281.0394 38.729889,1097.5484 33.95785,1056.706 34.78024,934.41324 40.105284,893.02149 51.100725,807.55355 69.495921,734.01694 98.109224,661.14507 110.09045,630.63147 132.38984,582.5896 145.22636,559.63576 l 8.42827,-15.07116 147.96194,99.31452 c 81.37908,54.62299 150.53874,101.15382 153.68814,103.40184 l 5.72618,4.0873 -12.03284,28.01866 c -32.77182,76.30965 -46.10136,141.03634 -46.12845,223.99418 -0.0214,65.8192 7.97938,116.248 27.94903,176.1602 50.21911,150.6656 166.28075,270.2378 307.95973,317.2748 60.25857,20.0056 110.77434,25.169 191.16304,19.5394 86.7145,-6.0726 131.2218,-17.2834 194.9565,-49.1065 40.9116,-20.4275 70.6956,-41.3497 102.9831,-72.3419 60.1769,-57.7629 99.7099,-124.3029 119.844,-201.7155 2.7952,-10.7471 5.7854,-20.3675 6.6448,-21.3786 0.8596,-1.0112 49.9994,70.8326 109.1996,159.6527 l 107.6368,161.4913 -11.2475,18.7136 c -61.1601,101.7585 -147.5722,190.3353 -246.4628,252.6368 -101.9138,64.2062 -211.8797,103.4305 -334.8585,119.4424 -34.91515,4.5459 -124.89592,7.9022 -148.63873,5.5442 z"
         id="path6338"
         transform="scale(0.5)" />
      <path
         style="fill:#e374ab;stroke:#e374ab;stroke-width:9.58179;stroke-dasharray:none;stroke-opacity:1"
         d="m 1568.747,756.04636 c -88.0003,-152.8328 -238.2195,-266.74704 -408.7714,-309.97973 -55.3311,-14.02571 -79.6119,-16.67557 -152.7996,-16.67557 -59.53753,0 -71.5386,0.65054 -98.69608,5.3499 -103.83776,17.96823 -197.50159,56.96997 -274.69196,114.38209 -59.88748,44.54268 -116.90465,107.35419 -152.73667,168.25842 -8.02542,13.64095 -15.75813,24.35412 -17.18382,23.80703 -9.7992,-3.7603 -305.71586,-200.6463 -305.71586,-203.40582 0,-1.11974 8.35613,-15.37669 18.56919,-31.68208 198.23779,-316.49158 578.76377,-491.196932 962.4464,-441.874004 154.5122,19.862752 299.6725,75.065774 431.4566,164.078664 113.9492,76.96644 211.8463,177.04509 288.4745,294.90307 19.9229,30.64234 40.9189,66.45837 39.5925,67.53903 -3.981,3.24371 -311.87,191.67735 -313.1382,191.64632 -0.9121,-0.0214 -8.4746,-11.87864 -16.8056,-26.34732 z"
         id="path6409"
         transform="scale(0.5)" />
      <path
         style="fill:#dd5498;stroke:#dd5498;stroke-width:9.58179;stroke-dasharray:none;stroke-opacity:1"
         d="m 1215.5198,1945.3277 c -20.786,-57.5838 -37.3719,-105.0657 -36.8577,-105.5155 0.5142,-0.4497 11.6368,-5.3465 24.7171,-10.8817 139.7905,-59.1559 262.1599,-161.4169 344.9181,-288.2392 11.3812,-17.441 22.7238,-34.3864 25.2058,-37.6565 5.2544,-6.9226 24.5553,-46.5122 37.6818,-77.2921 37.7431,-88.5027 59.5144,-195.5113 59.5144,-292.521 0,-111.5799 -29.1233,-236.70504 -77.1562,-331.49347 l -5.9944,-11.82928 156.7532,-96.4829 c 86.2142,-53.0656 157.4274,-96.48291 158.2514,-96.48291 2.7446,0 41.1968,81.5419 55.5134,117.72187 40.9687,103.53388 64.84,203.54505 76.9162,322.24879 3.9053,38.3869 3.882,158.5066 -0.038,198.5813 -13.5544,138.5507 -48.0778,264.625 -104.8491,382.8934 -76.691,159.7656 -197.132,307.7282 -337.5525,414.6853 l -22.2683,16.9616 h -158.4811 -158.481 z"
         id="path6480"
         transform="scale(0.5)" />
      <path
         style="fill:#ffd556;stroke:#ffd556;stroke-width:9.58179;stroke-dasharray:none;stroke-opacity:1"
         d="m 3.5673295,1517.3042 c 0,-292.9967 0.8428798,-532.72126 1.8730663,-532.72126 1.0301868,0 6.7867742,5.08345 12.7924172,11.29655 l 10.919351,11.29651 1.429712,43.9971 c 4.247192,130.7002 47.467084,284.0912 113.510334,402.8576 19.58318,35.2167 58.80571,94.2914 83.06464,125.1072 30.38551,38.5982 111.51157,118.0541 149.79097,146.7071 105.40405,78.8972 217.43572,129.9321 338.38924,154.1497 138.13668,27.658 299.36944,16.9455 429.50844,-28.5372 13.5873,-4.7486 25.5058,-7.7645 26.4856,-6.7019 0.9798,1.0626 16.8263,43.6697 35.2145,94.6825 18.3882,51.0129 35.1119,96.7639 37.1638,101.6689 l 3.7306,8.9184 H 625.50369 3.5673295 Z"
         id="path6551"
         transform="scale(0.5)" />
      <path
         style="fill:#fd933a;stroke:#fd933a;stroke-width:9.58179;stroke-dasharray:none;stroke-opacity:1"
         d="m 2041.7013,1056.5241 c -3e-4,-18.2835 -7.0102,-76.10558 -14.3438,-118.31644 C 1993.5938,743.86821 1910.845,564.68308 1784.6382,412.62111 1758.5567,381.19646 1690.2874,313.201 1658.0035,286.49447 1497.2752,153.53353 1310.7759,75.118206 1105.8721,54.345906 1060.1444,49.710209 948.30886,50.400437 903.72348,55.593532 732.78263,75.503918 584.97103,128.8562 448.29441,219.97968 394.07628,256.12736 352.67376,290.33087 303.09168,339.93471 245.98713,397.06435 210.42403,441.4034 170.63817,505.0739 c -9.91048,15.86002 -18.64709,29.37152 -19.41469,30.02553 -2.69538,2.2965 -38.07151,75.21968 -50.1864,103.45255 C 57.823636,739.25781 29.846169,871.15086 29.748624,974.62429 L 29.727746,996.77158 16.677548,985.32628 3.6273498,973.88096 3.5973398,488.12959 3.5673295,2.3782197 H 1023.8236 2044.0798 V 537.47765 c 0,294.30468 -0.5351,535.09945 -1.1891,535.09945 -0.654,0 -1.1893,-7.2239 -1.1894,-16.053 z"
         id="path6622"
         transform="scale(0.5)" />
      <path
         style="fill:#4ab563;stroke:#4ab563;stroke-width:13.5507;stroke-dasharray:none;stroke-opacity:1"
         d="m 1587.6507,2045.4162 c 1.7574,-1.5619 13.7896,-11.1749 26.7383,-21.3621 119.6819,-94.158 232.0907,-230.5649 303.5924,-368.406 64.6011,-124.5381 100.9976,-242.5369 120.098,-389.3617 3.765,-28.9422 4.428,23.2439 4.7535,374.1683 l 0.3782,407.8014 h -229.3777 c -126.1578,0 -227.94,-1.278 -226.1827,-2.8399 z"
         id="path6693"
         transform="scale(0.5)" />
      <path
         style="fill:#dd5498;stroke:#fea35a;stroke-width:1.69384;stroke-dasharray:none;stroke-opacity:1"
         d="m 892.11812,834.51465 c 8.0046,-3.92278 17.17298,-7.77775 25.14211,-10.57136 3.19169,-1.11885 5.87256,-2.03428 5.95749,-2.03428 0.16764,0 0.44758,1.32185 0.8592,4.05703 l 0.26257,1.74477 -1.81662,0.28751 c -6.8921,1.09081 -21.70119,4.94065 -30.61496,7.95881 -3.12157,1.05695 -5.86477,1.90649 -6.096,1.88786 -0.23123,-0.0186 2.60656,-1.51727 6.30621,-3.33034 z"
         id="path7421"
         transform="scale(0.5)" />
      <path
         style="fill:#dd5498;stroke:#c163ae;stroke-width:1.69384;stroke-dasharray:none;stroke-opacity:1"
         d="m 746.61802,1046.1001 c -0.43989,-2.9333 0.12212,-21.2397 0.86814,-28.2783 1.74339,-16.4485 5.47328,-33.42438 10.52111,-47.88486 15.62665,-44.76558 44.13592,-81.57475 83.24077,-107.4746 7.05048,-4.66966 17.20528,-10.70395 18.01313,-10.70395 0.53229,0 0.75646,-0.18673 -4.13947,3.44805 -10.8989,8.09142 -26.28078,22.46645 -34.32364,32.07692 -21.59921,25.80904 -36.57378,57.17566 -42.5593,89.14723 -3.85278,20.57956 -3.19704,47.94571 1.64039,68.45791 0.75128,3.1857 0.7514,3.2031 0.0222,3.2031 -1.30523,0 -3.86817,-15.3933 -4.89869,-29.4221 -0.55631,-7.5731 -0.32027,-23.80655 0.4494,-30.90724 1.7206,-15.87376 5.07764,-30.59092 10.04508,-44.03727 2.24322,-6.07216 3.77714,-9.62731 8.57132,-19.86563 3.68825,-7.87651 5.77801,-13.83145 5.89529,-16.79906 0.0809,-2.04605 0.0418,-2.12436 -1.127,-2.25786 -5.90643,-0.67467 -29.05143,40.79859 -39.0887,70.04259 -7.0987,20.68236 -10.83166,45.76447 -10.04093,67.46597 l 0.21063,5.7806 h -1.50053 c -1.46722,0 -1.50716,-0.044 -1.79917,-1.9915 z"
         id="path7423"
         transform="scale(0.5)" />
      <path
         style="fill:#fd933a;stroke:#fd933a;stroke-width:1.19772;stroke-dasharray:none;stroke-opacity:1"
         d="m 2044.2408,1254.3771 c -0.7255,-0.8742 -2.9377,-1.6924 -4.5758,-1.6924 -1.357,0 -1.5944,-0.079 -1.498,-0.499 0.2237,-0.9745 2.1863,-21.6797 2.4846,-26.2135 0.489,-7.4316 1.1494,-22.9908 1.5457,-36.4164 0.4189,-14.1884 0.5279,-80.7046 0.164,-100.0184 -0.1277,-6.7768 -0.1386,-12.2278 -0.024,-12.1134 0.1145,0.1145 0.4196,0.026 0.6781,-0.1966 0.2585,-0.2225 0.7711,-0.4778 1.1389,-0.5673 l 0.6689,-0.1628 v 89.1555 c 0,49.0354 -0.051,89.1554 -0.1122,89.1554 -0.062,0 -0.2733,-0.194 -0.47,-0.4311 z"
         id="path10026"
         transform="scale(0.5)" />
      <text
         xml:space="preserve"
         style="font-weight:bold;font-size:459.853px;font-family:Wigglye;-inkscape-font-specification:'Wigglye Bold';text-align:center;text-anchor:middle;fill:#dc3545;stroke:#fd933a;stroke-width:6.81154;stroke-dasharray:none;stroke-opacity:1;filter:url(#filter10507)"
         x="514.99158"
         y="685.93402"
         id="text10082"
         transform="scale(1.0356381,0.96558829)"><tspan
           sodipodi:role="line"
           id="tspan10080"
           style="stroke-width:6.81154;fill:#dc3545"
           x="514.99158"
           y="685.93402">HCSS</tspan></text>
    </g>
  </g>
  <metadata
     id="metadata3330">
    <rdf:RDF>
      <cc:Work
         rdf:about="">
        <dc:title>Logo Helpers Css</dc:title>
        <dc:creator>
          <cc:Agent>
            <dc:title>Robert Pérez</dc:title>
          </cc:Agent>
        </dc:creator>
        <dc:rights>
          <cc:Agent>
            <dc:title>2023 REP98</dc:title>
          </cc:Agent>
        </dc:rights>
        <dc:language>es-VE</dc:language>
        <dc:subject>
          <rdf:Bag>
            <rdf:li>CSS</rdf:li>
            <rdf:li>Helpers</rdf:li>
          </rdf:Bag>
        </dc:subject>
        <cc:license
           rdf:resource="http://creativecommons.org/licenses/by-nc/4.0/" />
      </cc:Work>
      <cc:License
         rdf:about="http://creativecommons.org/licenses/by-nc/4.0/">
        <cc:permits
           rdf:resource="http://creativecommons.org/ns#Reproduction" />
        <cc:permits
           rdf:resource="http://creativecommons.org/ns#Distribution" />
        <cc:requires
           rdf:resource="http://creativecommons.org/ns#Notice" />
        <cc:requires
           rdf:resource="http://creativecommons.org/ns#Attribution" />
        <cc:prohibits
           rdf:resource="http://creativecommons.org/ns#CommercialUse" />
        <cc:permits
           rdf:resource="http://creativecommons.org/ns#DerivativeWorks" />
      </cc:License>
    </rdf:RDF>
  </metadata>
</svg>
